# Blender v2.76 (sub 0) OBJ File: 'lego.blend'
# www.blender.org
mtllib lego.mtl
o Cube
v 0.449732 -0.449866 -0.449732
v 0.449732 -0.449866 0.449732
v -0.449732 -0.449866 0.449732
v -0.449732 -0.449866 -0.449732
v 0.449732 0.449732 -0.449732
v 0.449731 0.449732 0.449732
v -0.449732 0.449732 0.449732
v -0.449732 0.449732 -0.449732
v 0.289946 0.589893 0.289946
v 0.110054 0.589893 0.289946
v 0.110054 0.589893 0.110054
v 0.289946 0.589893 0.110054
v 0.110054 0.589893 -0.289946
v 0.110054 0.589893 -0.110054
v 0.289946 0.589893 -0.110054
v 0.289946 0.589893 -0.289946
v 0.110054 0.409973 -0.289946
v 0.110054 0.409973 -0.110054
v 0.289946 0.409973 -0.110054
v 0.289946 0.409973 -0.289946
v 0.289946 0.409973 0.110054
v 0.110054 0.409973 0.110054
v 0.110054 0.409973 0.289946
v 0.289946 0.409973 0.289946
v -0.289946 0.589893 0.289946
v -0.289946 0.589893 0.110054
v -0.110054 0.589893 0.110054
v -0.110054 0.589893 0.289946
v -0.110054 0.409973 0.289946
v -0.110054 0.409973 0.110054
v -0.289946 0.409973 0.110054
v -0.289946 0.409973 0.289946
v -0.289946 0.589893 -0.289946
v -0.110054 0.589893 -0.289946
v -0.110054 0.589893 -0.110054
v -0.289946 0.589893 -0.110054
v -0.289946 0.409973 -0.110054
v -0.110054 0.409973 -0.110054
v -0.110054 0.409973 -0.289946
v -0.289946 0.409973 -0.289946
vn 1.000000 0.000000 0.000000
vn -1.000000 -0.000000 -0.000000
vn -0.000000 0.000000 1.000000
vn 0.000000 -1.000000 0.000000
vn 0.000000 1.000000 -0.000000
vn 0.000000 0.000000 -1.000000
usemtl Material
s off
f 5//1 6//1 2//1
f 7//2 8//2 4//2
f 6//3 7//3 3//3
f 2//4 3//4 4//4
f 8//5 7//5 6//5
f 1//6 4//6 8//6
f 27//1 28//1 29//1
f 16//6 20//6 17//6
f 25//2 26//2 31//2
f 11//6 12//6 21//6
f 15//3 14//3 18//3
f 9//3 10//3 23//3
f 10//2 11//2 22//2
f 14//2 13//2 17//2
f 16//5 13//5 14//5
f 16//1 15//1 19//1
f 9//5 12//5 11//5
f 9//1 24//1 21//1
f 26//6 27//6 30//6
f 28//5 27//5 26//5
f 25//3 32//3 29//3
f 35//3 36//3 37//3
f 33//6 34//6 39//6
f 34//1 35//1 38//1
f 33//5 36//5 35//5
f 33//2 40//2 37//2
f 1//1 5//1 2//1
f 3//2 7//2 4//2
f 2//3 6//3 3//3
f 1//4 2//4 4//4
f 5//5 8//5 6//5
f 5//6 1//6 8//6
f 30//1 27//1 29//1
f 13//6 16//6 17//6
f 32//2 25//2 31//2
f 22//6 11//6 21//6
f 19//3 15//3 18//3
f 24//3 9//3 23//3
f 23//2 10//2 22//2
f 18//2 14//2 17//2
f 15//5 16//5 14//5
f 20//1 16//1 19//1
f 10//5 9//5 11//5
f 12//1 9//1 21//1
f 31//6 26//6 30//6
f 25//5 28//5 26//5
f 28//3 25//3 29//3
f 38//3 35//3 37//3
f 40//6 33//6 39//6
f 39//1 34//1 38//1
f 34//5 33//5 35//5
f 36//2 33//2 37//2
